<svg xmlns="http://www.w3.org/2000/svg" width="37" height="28" viewBox="0 0 37 28" fill="none">
  <path d="M28 14C28 21.732 21.732 28 14 28C6.26801 28 0 21.732 0 14C0 6.26801 6.26801 0 14 0C21.732 0 28 6.26801 28 14Z" fill="#CAE8DD"/>
  <path fill-rule="evenodd" clip-rule="evenodd" d="M27.1128 2.13625C27.3749 2.3651 27.5355 2.68871 27.5591 3.03591C27.5827 3.38311 27.4675 3.72549 27.2388 3.98775L13.489 19.7378C13.3658 19.8789 13.2138 19.992 13.0433 20.0695C12.8727 20.147 12.6876 20.1871 12.5002 20.1871C12.3129 20.1871 12.1278 20.147 11.9572 20.0695C11.7867 19.992 11.6347 19.8789 11.5115 19.7378L6.01125 13.4377C5.79062 13.1744 5.68203 12.8351 5.70878 12.4926C5.73554 12.1501 5.89552 11.8317 6.15437 11.6059C6.41323 11.38 6.75032 11.2646 7.09328 11.2845C7.43625 11.3044 7.75774 11.458 7.98875 11.7122L12.5002 16.88L25.2613 2.26225C25.4901 2.00008 25.8137 1.83953 26.1609 1.8159C26.5081 1.79227 26.8505 1.9075 27.1128 2.13625ZM35.9065 2.285C36.4315 2.78375 36.4507 3.615 35.9502 4.14L20.951 19.89C20.82 20.0276 20.6607 20.1351 20.4841 20.2051C20.3074 20.2751 20.1177 20.3059 19.928 20.2954C19.7384 20.2849 19.5532 20.2334 19.3854 20.1444C19.2175 20.0553 19.071 19.9309 18.956 19.7798L18.2052 18.7945C18.0086 18.5381 17.9134 18.2182 17.9379 17.8961C17.9624 17.5739 18.1049 17.2721 18.3381 17.0484C18.5713 16.8248 18.8788 16.695 19.2017 16.6839C19.5247 16.6729 19.8403 16.7813 20.0883 16.9885L34.0498 2.32875C34.2898 2.07683 34.62 1.93052 34.9678 1.92199C35.3157 1.91346 35.6527 2.0434 35.9048 2.28325" fill="#01AEB0"/>
</svg>