<svg width="22" height="18" viewBox="0 0 22 18" fill="none" xmlns="http://www.w3.org/2000/svg">
<path d="M19.0605 16L18 17.0605L15.9219 14.9824C14.4235 15.6723 12.7579 16.0605 11 16.0605C6 16.0605 1.73 12.9505 0 8.56055C0.849885 6.4039 2.31352 4.55721 4.1748 3.23535L2 1.06055L3.06055 0L19.0605 16ZM6.7959 5.85645C6.28088 6.65688 6 7.59393 6 8.56055C6 9.88663 6.52716 11.158 7.46484 12.0957C8.40253 13.0334 9.67392 13.5605 11 13.5605C11.9665 13.5605 12.9027 13.2786 13.7031 12.7637L12.2314 11.292C11.8476 11.4652 11.4293 11.5605 11 11.5605C10.2044 11.5605 9.44151 11.2442 8.87891 10.6816C8.3163 10.119 8 9.3562 8 8.56055C8 8.13108 8.09428 7.71214 8.26758 7.32812L6.7959 5.85645ZM11 1.06055C16 1.06055 20.27 4.17055 22 8.56055C21.2495 10.465 20.0207 12.1281 18.4619 13.4014L15.5928 10.5322C15.8578 9.91492 16 9.24535 16 8.56055C16 7.23446 15.4728 5.96307 14.5352 5.02539C13.5975 4.08771 12.3261 3.56055 11 3.56055C10.315 3.56055 9.64478 3.70166 9.02734 3.9668L6.86719 1.80664C8.15353 1.32538 9.54557 1.06055 11 1.06055ZM11 5.56055C11.7956 5.56055 12.5585 5.87684 13.1211 6.43945C13.6837 7.00206 14 7.7649 14 8.56055C14 8.67976 13.9895 8.79785 13.9756 8.91504L10.6445 5.58398C10.762 5.56996 10.8805 5.56055 11 5.56055Z" fill="#757575"/>
</svg>
