<svg width="87" height="78" viewBox="0 0 87 78" fill="none" xmlns="http://www.w3.org/2000/svg">
<path d="M18.9105 68.4536L9.1084 76.4652H73.4146" stroke="#01AEB0" stroke-width="3" stroke-linecap="round" stroke-linejoin="round"/>
<circle cx="39.3644" cy="26.3551" r="2.26963" fill="#4D4D4D"/>
<circle cx="47.6856" cy="26.3551" r="2.26963" fill="#4D4D4D"/>
<path d="M57.5755 42.7211C57.1796 42.6815 56.8157 42.4863 56.5638 42.1784C56.3119 41.8705 56.1926 41.4752 56.2322 41.0793C56.2718 40.6835 56.467 40.3195 56.7749 40.0676C57.0828 39.8157 57.4781 39.6964 57.874 39.736C59.7948 40.0002 61.1699 40.6437 62.637 41.3072C65.9472 42.9614 69.1582 44.7876 71.5795 48.1816C71.7147 48.3893 71.8506 48.6182 71.9699 48.8463C72.1667 49.2507 72.1572 49.4435 72.1773 49.5989C72.1888 49.7559 72.1853 49.8686 72.1804 49.9708C72.1693 50.1732 72.1473 50.3315 72.1241 50.4814C72.0772 50.7767 72.0209 51.034 71.9659 51.2796C71.9136 51.5116 71.8463 51.7947 71.8307 51.8893C71.83 51.8887 71.8315 51.9029 71.8374 51.8149C71.8313 51.7682 71.8711 51.7269 71.7831 51.3654C71.7551 51.2825 71.6747 50.9514 71.3077 50.639C71.1293 50.4845 70.8463 50.3522 70.6078 50.3155C70.3877 50.2771 70.1846 50.2943 70.028 50.3298C69.7119 50.4057 69.5611 50.5203 69.4584 50.5945C69.4023 50.6375 69.3685 50.6684 69.3376 50.6977C69.2184 50.8158 69.2059 50.8461 69.1884 50.8672C69.1728 50.8888 69.1653 50.9008 69.164 50.9027C69.1591 50.9106 69.1658 50.8998 69.1714 50.8898C69.2032 50.8341 69.2495 50.7449 69.2996 50.6446C70.9682 47.7025 71.2541 45.0279 70.8786 41.6909C70.2214 37.0614 75.2234 32.7853 79.66 34.2268C85.4829 35.8258 86.5265 42.427 85.8568 46.8337C85.339 50.445 84.2745 53.92 82.4662 57.1591C80.7247 60.2677 77.6221 63.7417 73.1867 63.7255C68.5449 63.8818 63.982 61.4621 60.8305 58.5189C59.6584 57.482 58.5654 56.4045 57.4905 55.331C57.2091 55.0497 57.051 54.6682 57.051 54.2704C57.0509 53.8726 57.2089 53.491 57.4902 53.2097C57.7714 52.9283 58.153 52.7702 58.5508 52.7702C58.9486 52.7701 59.3302 52.9281 59.6115 53.2094C60.6723 54.2691 61.7294 55.3092 62.817 56.2708C65.8297 59.0183 69.2723 60.8111 73.1867 60.7255C78.892 60.525 81.9676 52.534 82.8838 46.4325C83.4898 42.5118 82.3135 37.916 78.9012 37.1293C76.2661 36.2908 73.5177 38.7284 73.8638 41.3927C74.3475 44.7362 73.7658 49.0591 71.9829 51.9862C71.9184 52.1142 71.8669 52.2176 71.7767 52.3773C71.7592 52.4081 71.7246 52.4671 71.6931 52.5163C71.6807 52.536 71.6483 52.5854 71.6175 52.6278C71.5853 52.6691 71.5512 52.7277 71.4117 52.8651C71.3759 52.8992 71.3378 52.9338 71.277 52.9804C71.1658 53.061 71.0076 53.1795 70.685 53.2569C70.5251 53.2931 70.319 53.3104 70.0962 53.2716C69.8547 53.2344 69.5685 53.1006 69.3874 52.9439C69.0153 52.6278 68.9301 52.2859 68.9006 52.1968C68.8058 51.8135 68.846 51.7326 68.8413 51.661C68.8513 51.5055 68.8604 51.4707 68.8697 51.4072C68.9365 51.0354 68.9888 50.8521 69.0393 50.62C69.0888 50.4007 69.1331 50.1904 69.1604 50.016C69.1741 49.9304 69.1829 49.8504 69.1844 49.8153C69.1856 49.7994 69.1837 49.7926 69.1862 49.8298C69.197 49.8706 69.1689 49.9368 69.3126 50.2386C69.2412 50.1021 69.1549 49.9559 69.0645 49.8171C67.3938 47.4031 64.3211 45.4556 61.3559 44.0199C60.0907 43.4255 58.6414 42.8511 57.5755 42.7211Z" fill="#4D4D4D"/>
<path d="M84.5264 31.2754L83.0959 33.0699" stroke="#01AEB0" stroke-width="3" stroke-linecap="round"/>
<path d="M74.9023 32.0762L73.9425 29.9917" stroke="#01AEB0" stroke-width="3" stroke-linecap="round"/>
<path d="M79.0576 31.4585L79.3422 29.1814" stroke="#01AEB0" stroke-width="3" stroke-linecap="round"/>
<path d="M34.7669 45.7578C30.3627 44.7651 20.2475 38.7343 19.0772 25.5383C18.1894 15.6409 26.2771 1.011 42.6983 1.51237C49.698 1.82145 64.4023 7.46778 64.4329 25.2065C64.4418 30.3565 61.9224 38.0899 55.6159 42.246" stroke="#4D4D4D" stroke-width="3" stroke-linecap="round" stroke-linejoin="round"/>
<path d="M57.0826 6.10645C50.3025 13.073 30.4724 11.958 21.2682 11.2208L18.9443 18.5467C38.5193 25.1815 56.5359 18.132 62.8239 12.603L57.0826 6.10645Z" fill="#01AEB0" stroke="#01AEB0" stroke-width="4" stroke-linecap="round" stroke-linejoin="round"/>
<path d="M36.9375 30.6289C37.5837 32.4734 40.2183 35.5389 45.5864 33.0454" stroke="#4D4D4D" stroke-width="3" stroke-linecap="round" stroke-linejoin="round"/>
<path d="M24.5061 41.0176C19.9386 42.5965 9.96938 46.5512 4.96819 54.8685C3.54413 57.2368 0.967606 65.4415 10.1894 67.5665C15.9665 68.8977 22.3356 67.9322 31.6591 65.6115C32.9887 65.2315 37.196 63.5875 36.1732 59.4783C35.448 56.5646 31.7503 55.5204 29.2762 56.038C25.1024 56.8313 17.1011 58.037 15.1951 56.8906" stroke="#4D4D4D" stroke-width="3" stroke-linecap="round"/>
</svg>
