<svg xmlns="http://www.w3.org/2000/svg" width="56" height="56" viewBox="0 0 56 56" fill="none">
  <path d="M41.5533 31.6592C43.1277 31.6592 44.6376 32.2846 45.7508 33.3978C46.8641 34.5111 47.4895 36.021 47.4895 37.5953V39.0101C47.4895 46.088 39.1591 51.4464 27.7023 51.4464C16.2455 51.4464 7.91504 46.367 7.91504 39.0101V37.5953C7.91504 36.021 8.54046 34.5111 9.6537 33.3978C10.767 32.2846 12.2768 31.6592 13.8512 31.6592H41.5533ZM27.7023 3.95703C29.2614 3.95703 30.8052 4.26412 32.2456 4.86076C33.686 5.4574 34.9948 6.33191 36.0973 7.43436C37.1997 8.53681 38.0742 9.8456 38.6709 11.286C39.2675 12.7264 39.5746 14.2703 39.5746 15.8294C39.5746 17.3885 39.2675 18.9323 38.6709 20.3727C38.0742 21.8131 37.1997 23.1219 36.0973 24.2244C34.9948 25.3268 33.686 26.2013 32.2456 26.798C30.8052 27.3946 29.2614 27.7017 27.7023 27.7017C24.5535 27.7017 21.5338 26.4509 19.3073 24.2244C17.0808 21.9979 15.8299 18.9781 15.8299 15.8294C15.8299 12.6806 17.0808 9.66085 19.3073 7.43436C21.5338 5.20786 24.5535 3.95703 27.7023 3.95703Z" fill="#FCFCFC"/>
</svg>