<svg width="38" height="42" viewBox="0 0 38 42" fill="none" xmlns="http://www.w3.org/2000/svg">
<path d="M33.8438 9.68338C35.1854 10.4462 36.0096 11.8741 36 13.417V27.378C36 28.9286 35.1509 30.3585 33.7805 31.1117L20.843 39.2959C20.2015 39.6479 19.4817 39.8324 18.75 39.8324C18.0183 39.8324 17.2985 39.6479 16.657 39.2959L3.7195 31.1117C3.04965 30.7445 2.49046 30.2045 2.10012 29.5478C1.70978 28.8912 1.50255 28.1419 1.5 27.378V13.4151C1.5 11.8645 2.34908 10.4366 3.7195 9.68338L16.657 2.05505C17.3174 1.69095 18.0592 1.5 18.8133 1.5C19.5673 1.5 20.3091 1.69095 20.9695 2.05505L33.907 9.68338H33.8438Z" stroke="white" stroke-width="3" stroke-linecap="round" stroke-linejoin="round"/>
</svg>
